# xmcd CD database file
#
# Track frame offsets:
#	150
#	16188
#	32869
#	50877
#	67362
#	81749
#	96533
#	110472
#	134170
#	152362
#	178502
#	197333
#	222485
#	238629
#
# Disc length: 3566 seconds
#
# Revision: 1
# Processed by: cddbd v1.5.1PL2 Copyright (c) Steve Scherf et al.
# Submitted via: CDex 1.51
#
DISCID=d40dec0e
DTITLE=Aces of Syncopation - Kitano Walk
DYEAR=2003
DGENRE=Jazz
TTITLE0=1 - Kitano Walk, Robert Veen, 2002
TTITLE1=2 - September Walk, Kurt Weill, 1938
TTITLE2=3 - Ché Bé, Robert Veen, 2002
TTITLE3=4 - Wrap your Troubles in Dreams, Harry Barris, 1931
TTITLE4=5 - Burgundy Street Blues, George Lewis
TTITLE5=6 - Tropical Mood Rhumba, traditional
TTITLE6=7 - I Surrounder, Dear, Harry Barris, 1930
TTITLE7=8 - Jazz Street Samba, Robert Veen, 2001
TTITLE8=9 - Brother, Can you spare a Dime?, Jay Gorney, 1932
TTITLE9=10- Annie Laurie, Lady J.D.Scott
TTITLE10=11- Saint James Infirmary, traditional
TTITLE11=12- I've found a New Baby, Spencer Williams, 1926
TTITLE12=13- Letite Fleur, Sidney Bechet, 1952
TTITLE13=14- Perdido Street Stomp, Sidney Bechet, 1945
EXTD=YEAR: 2003
EXTT0=
EXTT1=
EXTT2=
EXTT3=
EXTT4=
EXTT5=
EXTT6=
EXTT7=
EXTT8=
EXTT9=
EXTT10=
EXTT11=
EXTT12=
EXTT13=
PLAYORDER=
